<?xml version="1.0" encoding="utf-8"?>
<!-- Generator: Adobe Illustrator 16.0.0, SVG Export Plug-In . SVG Version: 6.00 Build 0)  -->
<!DOCTYPE svg PUBLIC "-//W3C//DTD SVG 1.1//EN" "http://www.w3.org/Graphics/SVG/1.1/DTD/svg11.dtd">
<svg version="1.1" xmlns="http://www.w3.org/2000/svg" xmlns:xlink="http://www.w3.org/1999/xlink" x="0px" y="0px" width="1920px"
	 height="1080px" viewBox="0 0 1920 1080" enable-background="new 0 0 1920 1080" xml:space="preserve">
<g id="Layer_1" display="none">
	
		<rect x="-40.583" y="-28.083" display="inline" fill="#58595B" stroke="#231F20" stroke-miterlimit="10" width="1933.75" height="1107.5"/>
</g>
<g id="plus">
	<path fill="#231F20" d="M147.604,78.818c0-1.349,1.094-2.444,2.444-2.444l0,0c1.349,0,2.443,1.095,2.443,2.444v32.813
		c0,1.349-1.094,2.443-2.443,2.443l0,0c-1.35,0-2.444-1.094-2.444-2.443V78.818z"/>
	<path fill="#231F20" d="M166.454,92.78c1.349,0,2.443,1.094,2.443,2.444l0,0c0,1.35-1.094,2.444-2.443,2.444h-32.813
		c-1.349,0-2.443-1.094-2.443-2.444l0,0c0-1.35,1.094-2.444,2.443-2.444H166.454z"/>
	<path fill="#231F20" d="M414.556,443.849c0-1.349,1.094-2.443,2.444-2.443l0,0c1.349,0,2.443,1.094,2.443,2.443v32.813
		c0,1.349-1.094,2.443-2.443,2.443l0,0c-1.35,0-2.444-1.094-2.444-2.443V443.849z"/>
	<path fill="#231F20" d="M433.406,457.812c1.349,0,2.443,1.094,2.443,2.443l0,0c0,1.35-1.094,2.444-2.443,2.444h-32.813
		c-1.349,0-2.443-1.094-2.443-2.444l0,0c0-1.35,1.094-2.443,2.443-2.443H433.406z"/>
	<path fill="#231F20" d="M1432.557,515.406c0-1.349,1.094-2.443,2.443-2.443l0,0c1.35,0,2.443,1.094,2.443,2.443v32.813
		c0,1.35-1.094,2.443-2.443,2.443l0,0c-1.35,0-2.443-1.094-2.443-2.443V515.406z"/>
	<path fill="#231F20" d="M1451.406,529.369c1.35,0,2.443,1.094,2.443,2.443l0,0c0,1.35-1.094,2.444-2.443,2.444h-32.813
		c-1.35,0-2.443-1.094-2.443-2.444l0,0c0-1.35,1.094-2.443,2.443-2.443H1451.406z"/>
	<path fill="#231F20" d="M1562.556,882.594c0-1.35,1.095-2.444,2.444-2.444l0,0c1.35,0,2.444,1.095,2.444,2.444v32.813
		c0,1.349-1.095,2.443-2.444,2.443l0,0c-1.35,0-2.444-1.095-2.444-2.443V882.594z"/>
	<path fill="#231F20" d="M1581.406,896.556c1.35,0,2.443,1.095,2.443,2.443l0,0c0,1.351-1.094,2.444-2.443,2.444h-32.813
		c-1.35,0-2.443-1.094-2.443-2.444l0,0c0-1.349,1.094-2.443,2.443-2.443H1581.406z"/>
	<path fill="#231F20" d="M1700.556,76.374c0-1.349,1.095-2.444,2.444-2.444l0,0c1.35,0,2.443,1.095,2.443,2.444v32.813
		c0,1.349-1.094,2.443-2.443,2.443l0,0c-1.35,0-2.444-1.094-2.444-2.443V76.374z"/>
	<path fill="#231F20" d="M1719.406,90.337c1.35,0,2.443,1.094,2.443,2.443l0,0c0,1.35-1.094,2.444-2.443,2.444h-32.813
		c-1.35,0-2.443-1.094-2.443-2.444l0,0c0-1.35,1.094-2.443,2.443-2.443H1719.406z"/>
	<path fill="#231F20" d="M77.382,622.121c0-1.349,1.094-2.443,2.444-2.443l0,0c1.349,0,2.444,1.095,2.444,2.443v32.813
		c0,1.349-1.095,2.443-2.444,2.443l0,0c-1.35,0-2.444-1.095-2.444-2.443V622.121z"/>
	<path fill="#231F20" d="M96.232,636.084c1.35,0,2.444,1.094,2.444,2.443l0,0c0,1.35-1.094,2.443-2.444,2.443H63.419
		c-1.349,0-2.443-1.094-2.443-2.443l0,0c0-1.35,1.094-2.443,2.443-2.443H96.232z"/>
	<path fill="#231F20" d="M614.44,942.594c0-1.35,1.094-2.444,2.444-2.444l0,0c1.35,0,2.444,1.095,2.444,2.444v32.813
		c0,1.349-1.095,2.443-2.444,2.443l0,0c-1.35,0-2.444-1.095-2.444-2.443V942.594z"/>
	<path fill="#231F20" d="M633.29,956.556c1.35,0,2.443,1.094,2.443,2.443l0,0c0,1.351-1.094,2.444-2.443,2.444h-32.813
		c-1.35,0-2.443-1.094-2.443-2.444l0,0c0-1.35,1.094-2.443,2.443-2.443H633.29z"/>
	<path fill="#231F20" d="M989.869,168.594c0-1.35,1.094-2.444,2.443-2.444l0,0c1.35,0,2.443,1.095,2.443,2.444v32.813
		c0,1.349-1.094,2.443-2.443,2.443l0,0c-1.35,0-2.443-1.095-2.443-2.443V168.594z"/>
	<path fill="#231F20" d="M1008.719,182.557c1.35,0,2.443,1.094,2.443,2.442l0,0c0,1.351-1.094,2.444-2.443,2.444h-32.813
		c-1.35,0-2.443-1.094-2.443-2.444l0,0c0-1.349,1.094-2.442,2.443-2.442H1008.719z"/>
	<path fill="#231F20" d="M698.112,659.822c0-1.349,1.094-2.444,2.444-2.444l0,0c1.349,0,2.443,1.096,2.443,2.444v32.813
		c0,1.349-1.095,2.443-2.443,2.443l0,0c-1.351,0-2.444-1.095-2.444-2.443V659.822z"/>
	<path fill="#231F20" d="M716.962,673.785c1.351,0,2.444,1.094,2.444,2.443l0,0c0,1.35-1.094,2.444-2.444,2.444H684.15
		c-1.35,0-2.443-1.095-2.443-2.444l0,0c0-1.35,1.094-2.443,2.443-2.443H716.962z"/>
</g>
<g id="circle">
	<circle fill="none" stroke="#231F20" stroke-width="5" stroke-miterlimit="10" cx="960" cy="441.594" r="18.662"/>
	<circle fill="none" stroke="#231F20" stroke-width="5" stroke-miterlimit="10" cx="1740.511" cy="555.363" r="18.661"/>
	<circle fill="none" stroke="#231F20" stroke-width="5" stroke-miterlimit="10" cx="269" cy="861.487" r="18.661"/>
	<circle fill="none" stroke="#231F20" stroke-width="5" stroke-miterlimit="10" cx="131.197" cy="359.892" r="18.662"/>
	<circle fill="none" stroke="#231F20" stroke-width="5" stroke-miterlimit="10" cx="526.524" cy="135.179" r="18.662"/>
	<circle fill="none" stroke="#231F20" stroke-width="5" stroke-miterlimit="10" cx="1069.662" cy="754.034" r="18.662"/>
	<circle fill="none" stroke="#231F20" stroke-width="5" stroke-miterlimit="10" cx="1365" cy="135.179" r="18.662"/>
</g>
</svg>
